PathFileType	4	(X/Y/Z)	Patient4_TMGait_0pt6_02_right_36.trc.trc
DataRate	CameraRate	NumFrames	NumMarkers	Units	OrigDataRate	OrigDataStartFrame	OrigNumFrames
80.924855491330	80.924855491330	4	33	mm	80.924855491330	124	       141
Frame#	Time	Sacral			L.Shoulder			Chest			R.Shoulder			Neck			R.ASIS			L.ASIS			R.Thigh.Superior			R.Thigh.Lateral			R.Thigh.Inferior			R.Patella			L.Thigh.Superior			L.Thigh.Lateral			L.Thigh.Inferior			L.Patella			L.Shank.Superior			L.Shank.Lateral			L.Shank.Inferior			R.Shank.Superior			R.Shank.Lateral			R.Shank.Inferior			R.Heel			R.Midfoot.Superior			R.Midfoot.Lateral			R.Toe			L.Heel			L.Midfoot.Lateral			L.Midfoot.Superior			L.Toe			L.Elbow			L.Wrist			R.Elbow			R.Wrist			
		X1	Y1	Z1	X2	Y2	Z2	X3	Y3	Z3	X4	Y4	Z4	X5	Y5	Z5	X6	Y6	Z6	X7	Y7	Z7	X8	Y8	Z8	X9	Y9	Z9	X10	Y10	Z10	X11	Y11	Z11	X12	Y12	Z12	X13	Y13	Z13	X14	Y14	Z14	X15	Y15	Z15	X16	Y16	Z16	X17	Y17	Z17	X18	Y18	Z18	X19	Y19	Z19	X20	Y20	Z20	X21	Y21	Z21	X22	Y22	Z22	X23	Y23	Z23	X24	Y24	Z24	X25	Y25	Z25	X26	Y26	Z26	X27	Y27	Z27	X28	Y28	Z28	X29	Y29	Z29	X30	Y30	Z30	X31	Y31	Z31	X32	Y32	Z32	X33	Y33	Z33	

124	44.829928571429	814.120039062991	1010.265651683840	426.803424446642	1032.934561148513	1408.968844482528	220.245422434269	1127.979363872614	1341.091520375914	385.895747726780	1049.383867820336	1438.486942835619	550.394017830042	1039.118545492123	1478.339706356178	363.568177750439	1036.083011623301	924.365351619105	540.044746520668	1020.491003490374	953.557205290544	267.119912928147	1100.590538353183	752.002980568079	516.190652082519	1049.453969875678	631.820072185630	589.114171692367	1139.503000560460	593.393767420715	510.088202306993	1169.497832636080	510.425797584290	525.746340806950	1010.612956916937	729.192271530745	288.109965647875	882.823185667170	643.569971860050	234.102578553322	941.389483215702	545.411584976744	290.793683354702	922.812360607207	480.372089763350	301.270703585283	887.102383137146	417.283374748875	295.889776458565	777.000998921767	317.305402550417	254.648065917207	818.965037652371	199.852767467488	324.070550979388	1151.179419582432	421.724443169558	536.816017074229	1092.204998083243	309.492424372252	596.586885413213	1161.233701465771	221.871050314133	548.450482041320	1063.182447445245	41.766159777343	519.395155921339	1228.148331755054	108.329395538232	560.544295098750	1144.765580692653	39.959114804555	596.034386672662	1350.198632769857	65.327637492578	591.922452530094	675.047796748055	54.429702428407	375.510291476097	750.055776696880	40.470635919869	298.407424801824	836.514394703252	98.512748521598	321.348155355995	961.269199065624	38.264379855816	301.355814871022	1055.935463035130	1075.312910452753	71.384359938875	1302.508268741654	1006.697446515318	95.959053558304	881.001586396108	1161.283761719802	704.701584685195	855.140559470244	897.684054882487	701.800347698196	
125	44.842285714286	815.294943631888	1008.560469235912	429.743664487086	1031.987883646335	1407.475046519019	222.458983946933	1128.196593209222	1340.067062365405	387.721682513711	1049.808689416871	1437.218856827199	552.580177816853	1038.965673894225	1477.106469833358	365.783974884184	1037.687571569340	922.690504359305	541.912176162050	1021.506743441543	952.369356995622	269.331527333257	1101.408752820987	748.936511906066	518.097598819110	1047.995840058722	629.056584764995	589.598769677873	1138.008731754210	590.667848534978	510.535555913953	1166.663636858548	507.712174836461	525.110598678654	1010.539584476733	727.739654891055	289.616710608858	881.743686045927	643.264784747579	235.670895606757	939.529866277652	544.414181828835	292.002280684822	920.222742466775	479.219328929088	302.491451596650	883.802809317312	416.544449754189	296.785343106858	772.409446199544	318.032007699835	255.283100256635	812.984526893668	199.836583383465	324.246745762948	1148.802425847084	418.697315680182	536.293290186432	1089.902722656015	306.286658823887	595.556086371265	1158.662842934849	218.892708369257	547.003491949781	1059.826275465417	40.374828209117	517.634232456669	1225.304559395611	105.240519847788	558.242427229746	1141.371153309092	38.161525214832	594.314019054390	1347.227972098189	60.956262692115	589.632278291657	667.725530988703	55.327389804820	375.319292054521	742.683977341708	40.810393199011	298.292158888341	829.359805821697	98.630075169344	321.154644879270	953.837537455699	38.167260353148	301.356972978599	1054.431619407690	1072.947325622263	74.538265055089	1300.684142080653	1001.977316557276	98.684713294915	884.825762319252	1158.737786884510	708.570739030792	864.755923077606	894.565036355214	704.011743499628	
126	44.854642857143	816.416840947685	1007.294746954281	432.647463365037	1031.391370210034	1406.358120131653	224.819209397914	1128.608430786092	1339.268088140023	389.747832703945	1050.448286828932	1436.169727828507	554.954570730967	1039.138000708490	1476.213744291076	368.200491464680	1039.212738499973	921.515562389600	543.897228062273	1022.550430885661	951.424745479607	271.558315968285	1102.741548967009	746.987988638676	519.796804660186	1047.605380111079	627.347968586834	590.122338719755	1137.551181264389	589.078960987872	511.034574438829	1164.913544774353	505.735214158203	524.717614428871	1010.654355098395	726.565691461266	291.192097083717	881.012722352372	643.098288595545	237.322862513179	938.194796965144	543.590338057317	293.229459020943	918.231770142975	478.154902319486	303.690649055170	880.992599379230	415.896793874667	297.682681798222	768.189213914667	318.992136301184	255.946679470906	807.258895881170	199.977419346146	324.354628180869	1147.030385219687	416.335733134327	535.964933511858	1087.786269145878	304.174823821734	595.112795178790	1155.377645967123	216.536185227824	545.899175200167	1054.594146431457	39.903713988968	516.506460220485	1220.835811919356	102.657498672092	556.438688343897	1136.176391984885	37.060758470942	593.160421767457	1342.532116349915	56.710899435125	587.742412034486	660.470784530791	56.568087864283	375.066819602643	735.355263489163	41.266110972938	298.138933344435	822.357486280271	98.800529410794	320.833543703773	946.426895371406	38.062109338450	301.353139115378	1052.399760236188	1070.728197461231	78.069827695542	1298.034151617778	996.148089665767	101.318783451055	889.281364914659	1156.090033745020	712.607611847775	875.698648490953	891.468625991248	706.485208588887	
127	44.867000000000	817.481954237821	1006.539970850790	435.490369772340	1031.219346412623	1405.677745191742	227.302180068000	1129.217933708462	1338.736500887378	391.970962507518	1051.309633807500	1435.415342564086	557.486949870835	1039.655204346175	1475.712699348944	370.782503807768	1040.637836119241	920.900315066535	546.040255424352	1023.607784471191	950.815587055224	273.798978323210	1104.499545973153	746.167395826553	521.296130267613	1048.226582527167	626.664088346688	590.747771865957	1138.005021641388	588.512130433715	511.627464341955	1164.115546030328	504.446834859848	524.651745482732	1010.910626481928	725.750927733727	292.836291345340	880.604401436306	643.114338014989	239.039445985873	937.397123714174	542.988092083209	294.435406273236	916.886807102471	477.207267528876	304.776689971804	878.683850887808	415.378129443014	298.529506758771	764.340309789652	320.235474206732	256.636557041483	801.811069108234	200.318123155688	324.366953689455	1145.796642618199	414.632507210782	535.874516065866	1085.903436458208	303.062790144124	595.278817273866	1151.573742649222	214.788971439448	545.153820631410	1047.987759318625	40.079791670486	515.955286400364	1215.103522499442	100.657621748730	555.180909418024	1129.665485174057	36.517308495226	592.538097076149	1336.532257340673	52.915687018846	586.337859243140	653.310875457954	58.221074979057	374.753959389941	728.082791593456	41.866205926902	297.950626078025	815.542290512048	99.027360134349	320.363170153627	939.037601323393	37.953387835809	301.345920231752	1049.872220528179	1068.743974934872	81.996643584250	1294.483738541783	989.210549068021	103.847413425558	894.334827197982	1153.469744841704	716.768115620268	887.958894863401	888.585566238122	709.170243918784	
